Urbanist-Black.ufo
<glyph name="percent" format="2">
  <advance width="1630"/>
  <unicode hex="0025"/>
  <outline>
    <contour>
      <point x="238" y="0" type="line"/>
      <point x="584" y="0" type="line"/>
      <point x="1392" y="1400" type="line"/>
      <point x="1046" y="1400" type="line"/>
    </contour>
    <contour>
      <point x="414" y="760" type="curve" smooth="yes"/>
      <point x="590" y="760"/>
      <point x="746" y="902"/>
      <point x="746" y="1092" type="curve" smooth="yes"/>
      <point x="746" y="1278"/>
      <point x="596" y="1424"/>
      <point x="414" y="1424" type="curve" smooth="yes"/>
      <point x="236" y="1424"/>
      <point x="80" y="1284"/>
      <point x="80" y="1092" type="curve" smooth="yes"/>
      <point x="80" y="906"/>
      <point x="232" y="760"/>
    </contour>
    <contour>
      <point x="414" y="960" type="curve" smooth="yes"/>
      <point x="340" y="960"/>
      <point x="280" y="1018"/>
      <point x="280" y="1092" type="curve" smooth="yes"/>
      <point x="280" y="1166"/>
      <point x="340" y="1224"/>
      <point x="414" y="1224" type="curve" smooth="yes"/>
      <point x="486" y="1224"/>
      <point x="546" y="1166"/>
      <point x="546" y="1092" type="curve" smooth="yes"/>
      <point x="546" y="1018"/>
      <point x="486" y="960"/>
    </contour>
    <contour>
      <point x="1216" y="-26" type="curve" smooth="yes"/>
      <point x="1400" y="-26"/>
      <point x="1550" y="124"/>
      <point x="1550" y="306" type="curve" smooth="yes"/>
      <point x="1550" y="482"/>
      <point x="1408" y="640"/>
      <point x="1216" y="640" type="curve" smooth="yes"/>
      <point x="1040" y="640"/>
      <point x="884" y="496"/>
      <point x="884" y="306" type="curve" smooth="yes"/>
      <point x="884" y="132"/>
      <point x="1030" y="-26"/>
    </contour>
    <contour>
      <point x="1216" y="174" type="curve" smooth="yes"/>
      <point x="1144" y="174"/>
      <point x="1084" y="234"/>
      <point x="1084" y="306" type="curve" smooth="yes"/>
      <point x="1084" y="380"/>
      <point x="1144" y="440"/>
      <point x="1216" y="440" type="curve" smooth="yes"/>
      <point x="1290" y="440"/>
      <point x="1350" y="380"/>
      <point x="1350" y="306" type="curve" smooth="yes"/>
      <point x="1350" y="234"/>
      <point x="1290" y="174"/>
    </contour>
  </outline>
</glyph>
<glyph name="quotesingle" format="2">
  <advance width="320"/>
  <unicode hex="0027"/>
  <outline>
    <contour>
      <point x="60" y="878" type="line"/>
      <point x="260" y="878" type="line"/>
      <point x="260" y="1400" type="line"/>
      <point x="60" y="1400" type="line"/>
    </contour>
  </outline>
</glyph>
<glyph name="parenright" format="2">
  <advance width="820"/>
  <unicode hex="0029"/>
  <outline>
    <contour>
      <point x="100" y="-112" type="curve"/>
      <point x="400" y="-112" type="line"/>
      <point x="610" y="98"/>
      <point x="700" y="326"/>
      <point x="700" y="644" type="curve" smooth="yes"/>
      <point x="700" y="872"/>
      <point x="564" y="1340"/>
      <point x="400" y="1400" type="curve"/>
      <point x="100" y="1400" type="line"/>
      <point x="222" y="1338"/>
      <point x="400" y="882"/>
      <point x="400" y="644" type="curve" smooth="yes"/>
      <point x="400" y="332"/>
      <point x="232" y="40"/>
    </contour>
  </outline>
</glyph>
<glyph name="five" format="2">
  <advance width="1172"/>
  <unicode hex="0035"/>
  <outline>
    <contour>
      <point x="562" y="-26" type="curve" smooth="yes"/>
      <point x="834" y="-26"/>
      <point x="1052" y="196"/>
      <point x="1052" y="464" type="curve" smooth="yes"/>
      <point x="1052" y="732"/>
      <point x="852" y="946"/>
      <point x="568" y="958" type="curve"/>
      <point x="504" y="960" type="line"/>
      <point x="534" y="1100" type="line"/>
      <point x="996" y="1100" type="line"/>
      <point x="996" y="1400" type="line"/>
      <point x="290" y="1400" type="line"/>
      <point x="134" y="660" type="line"/>
      <point x="504" y="660" type="line" smooth="yes"/>
      <point x="704" y="660"/>
      <point x="752" y="570"/>
      <point x="752" y="464" type="curve" smooth="yes"/>
      <point x="752" y="358"/>
      <point x="666" y="274"/>
      <point x="562" y="274" type="curve" smooth="yes"/>
      <point x="456" y="274"/>
      <point x="370" y="358"/>
      <point x="370" y="464" type="curve"/>
      <point x="70" y="464" type="line"/>
      <point x="70" y="200"/>
      <point x="284" y="-26"/>
    </contour>
  </outline>
</glyph>
<glyph name="six" format="2">
  <advance width="1110"/>
  <unicode hex="0036"/>
  <outline>
    <contour>
      <point x="548" y="-26" type="curve" smooth="yes"/>
      <point x="826" y="-26"/>
      <point x="1050" y="200"/>
      <point x="1050" y="474" type="curve" smooth="yes"/>
      <point x="1050" y="730"/>
      <point x="860" y="942"/>
      <point x="606" y="972" type="curve"/>
      <point x="854" y="1400" type="line"/>
      <point x="506" y="1400" type="line"/>
      <point x="116" y="724" type="line" smooth="yes"/>
      <point x="70" y="646"/>
      <point x="50" y="560"/>
      <point x="50" y="474" type="curve" smooth="yes"/>
      <point x="50" y="198"/>
      <point x="276" y="-26"/>
    </contour>
    <contour>
      <point x="548" y="274" type="curve" smooth="yes"/>
      <point x="446" y="274"/>
      <point x="350" y="358"/>
      <point x="350" y="472" type="curve" smooth="yes"/>
      <point x="350" y="576"/>
      <point x="430" y="674"/>
      <point x="550" y="674" type="curve" smooth="yes"/>
      <point x="664" y="674"/>
      <point x="750" y="582"/>
      <point x="750" y="472" type="curve" smooth="yes"/>
      <point x="750" y="372"/>
      <point x="664" y="274"/>
    </contour>
  </outline>
</glyph>
<glyph name="colon" format="2">
  <advance width="500"/>
  <unicode hex="003A"/>
  <outline>
    <contour>
      <point x="230" y="700" type="curve" smooth="yes"/>
      <point x="312" y="700"/>
      <point x="380" y="766"/>
      <point x="380" y="850" type="curve" smooth="yes"/>
      <point x="380" y="932"/>
      <point x="312" y="1000"/>
      <point x="230" y="1000" type="curve" smooth="yes"/>
      <point x="146" y="1000"/>
      <point x="80" y="932"/>
      <point x="80" y="850" type="curve" smooth="yes"/>
      <point x="80" y="766"/>
      <point x="146" y="700"/>
    </contour>
    <contour>
      <point x="230" y="-26" type="curve" smooth="yes"/>
      <point x="312" y="-26"/>
      <point x="380" y="40"/>
      <point x="380" y="124" type="curve" smooth="yes"/>
      <point x="380" y="206"/>
      <point x="312" y="274"/>
      <point x="230" y="274" type="curve" smooth="yes"/>
      <point x="146" y="274"/>
      <point x="80" y="206"/>
      <point x="80" y="124" type="curve" smooth="yes"/>
      <point x="80" y="40"/>
      <point x="146" y="-26"/>
    </contour>
  </outline>
</glyph>
<glyph name="at" format="2">
  <advance width="1890"/>
  <unicode hex="0040"/>
  <outline>
    <contour>
      <point x="945" y="-286" type="curve"/>
      <point x="945" y="14" type="line"/>
      <point x="631" y="14"/>
      <point x="380" y="237"/>
      <point x="380" y="550" type="curve" smooth="yes"/>
      <point x="380" y="864"/>
      <point x="635" y="1116"/>
      <point x="945" y="1116" type="curve" smooth="yes"/>
      <point x="1253" y="1116"/>
      <point x="1510" y="865"/>
      <point x="1510" y="550" type="curve" smooth="yes"/>
      <point x="1510" y="473"/>
      <point x="1482" y="308"/>
      <point x="1406" y="308" type="curve" smooth="yes"/>
      <point x="1367" y="308"/>
      <point x="1349" y="331"/>
      <point x="1349" y="374" type="curve" smooth="yes"/>
      <point x="1349" y="877" type="line"/>
      <point x="1129" y="927" type="line"/>
      <point x="1129" y="909" type="line"/>
      <point x="1083" y="934"/>
      <point x="989" y="948"/>
      <point x="927" y="948" type="curve" smooth="yes"/>
      <point x="708" y="948"/>
      <point x="530" y="770"/>
      <point x="530" y="550" type="curve" smooth="yes"/>
      <point x="530" y="331"/>
      <point x="708" y="152"/>
      <point x="927" y="152" type="curve" smooth="yes"/>
      <point x="999" y="152"/>
      <point x="1062" y="171"/>
      <point x="1113" y="205" type="curve"/>
      <point x="1140" y="99"/>
      <point x="1299" y="8"/>
      <point x="1426" y="8" type="curve" smooth="yes"/>
      <point x="1673" y="8"/>
      <point x="1810" y="275"/>
      <point x="1810" y="550" type="curve" smooth="yes"/>
      <point x="1810" y="1025"/>
      <point x="1426" y="1416"/>
      <point x="945" y="1416" type="curve" smooth="yes"/>
      <point x="467" y="1416"/>
      <point x="80" y="1029"/>
      <point x="80" y="550" type="curve" smooth="yes"/>
      <point x="80" y="71"/>
      <point x="466" y="-286"/>
    </contour>
    <contour>
      <point x="953" y="371" type="curve" smooth="yes"/>
      <point x="855" y="371"/>
      <point x="774" y="452"/>
      <point x="774" y="550" type="curve" smooth="yes"/>
      <point x="774" y="650"/>
      <point x="855" y="729"/>
      <point x="953" y="729" type="curve" smooth="yes"/>
      <point x="1051" y="729"/>
      <point x="1132" y="650"/>
      <point x="1132" y="550" type="curve" smooth="yes"/>
      <point x="1132" y="452"/>
      <point x="1051" y="371"/>
    </contour>
  </outline>
</glyph>
<glyph name="B" format="2">
  <advance width="1206"/>
  <unicode hex="0042"/>
  <outline>
    <contour>
      <point x="120" y="0" type="line"/>
      <point x="704" y="0" type="line" smooth="yes"/>
      <point x="936" y="0"/>
      <point x="1126" y="170"/>
      <point x="1126" y="382" type="curve" smooth="yes"/>
      <point x="1126" y="506"/>
      <point x="1108" y="721"/>
      <point x="930" y="765" type="curve"/>
      <point x="1034" y="813"/>
      <point x="1060" y="926"/>
      <point x="1060" y="1014" type="curve" smooth="yes"/>
      <point x="1060" y="1248"/>
      <point x="880" y="1400"/>
      <point x="650" y="1400" type="curve" smooth="yes"/>
      <point x="120" y="1400" type="line"/>
    </contour>
    <contour>
      <point x="420" y="254" type="line"/>
      <point x="420" y="625" type="line"/>
      <point x="672" y="625" type="line" smooth="yes"/>
      <point x="776" y="625"/>
      <point x="860" y="536"/>
      <point x="860" y="444" type="curve" smooth="yes"/>
      <point x="860" y="334"/>
      <point x="776" y="254"/>
      <point x="672" y="254" type="curve" smooth="yes"/>
    </contour>
    <contour>
      <point x="420" y="875" type="line"/>
      <point x="420" y="1144" type="line"/>
      <point x="614" y="1144" type="line" smooth="yes"/>
      <point x="694" y="1144"/>
      <point x="760" y="1098"/>
      <point x="760" y="1016" type="curve" smooth="yes"/>
      <point x="760" y="934"/>
      <point x="694" y="875"/>
      <point x="614" y="875" type="curve" smooth="yes"/>
    </contour>
  </outline>
</glyph>
<glyph name="I" format="2">
  <advance width="600"/>
  <unicode hex="0049"/>
  <outline>
    <contour>
      <point x="150" y="0" type="line"/>
      <point x="450" y="0" type="line"/>
      <point x="450" y="1400" type="line"/>
      <point x="150" y="1400" type="line"/>
    </contour>
  </outline>
</glyph>
<glyph name="N" format="2">
  <advance width="1376"/>
  <unicode hex="004E"/>
  <outline>
    <contour>
      <point x="120" y="0" type="line"/>
      <point x="420" y="0" type="line"/>
      <point x="420" y="858" type="line"/>
      <point x="932" y="0" type="line"/>
      <point x="1256" y="0" type="line"/>
      <point x="1256" y="1400" type="line"/>
      <point x="956" y="1400" type="line"/>
      <point x="956" y="542" type="line"/>
      <point x="444" y="1400" type="line"/>
      <point x="120" y="1400" type="line"/>
    </contour>
  </outline>
</glyph>
<glyph name="R" format="2">
  <advance width="1266"/>
  <unicode hex="0052"/>
  <outline>
    <contour>
      <point x="120" y="0" type="line"/>
      <point x="420" y="0" type="line"/>
      <point x="420" y="544" type="line"/>
      <point x="524" y="544" type="line"/>
      <point x="840" y="0" type="line"/>
      <point x="1186" y="0" type="line"/>
      <point x="854" y="572" type="line"/>
      <point x="1004" y="644"/>
      <point x="1100" y="792"/>
      <point x="1100" y="972" type="curve" smooth="yes"/>
      <point x="1100" y="1206"/>
      <point x="920" y="1400"/>
      <point x="690" y="1400" type="curve" smooth="yes"/>
      <point x="120" y="1400" type="line"/>
    </contour>
    <contour>
      <point x="420" y="844" type="line"/>
      <point x="420" y="1144" type="line"/>
      <point x="654" y="1144" type="line" smooth="yes"/>
      <point x="734" y="1144"/>
      <point x="800" y="1076"/>
      <point x="800" y="994" type="curve" smooth="yes"/>
      <point x="800" y="912"/>
      <point x="734" y="844"/>
      <point x="654" y="844" type="curve" smooth="yes"/>
    </contour>
  </outline>
</glyph>
<glyph name="U" format="2">
  <advance width="1378"/>
  <unicode hex="0055"/>
  <outline>
    <contour>
      <point x="690" y="-26" type="curve" smooth="yes"/>
      <point x="1026" y="-26"/>
      <point x="1258" y="246"/>
      <point x="1258" y="584" type="curve" smooth="yes"/>
      <point x="1258" y="1400" type="line"/>
      <point x="958" y="1400" type="line"/>
      <point x="958" y="584" type="line" smooth="yes"/>
      <point x="958" y="412"/>
      <point x="862" y="274"/>
      <point x="690" y="274" type="curve" smooth="yes"/>
      <point x="520" y="274"/>
      <point x="420" y="414"/>
      <point x="420" y="584" type="curve" smooth="yes"/>
      <point x="420" y="1400" type="line"/>
      <point x="120" y="1400" type="line"/>
      <point x="120" y="584" type="line" smooth="yes"/>
      <point x="120" y="246"/>
      <point x="354" y="-26"/>
    </contour>
  </outline>
</glyph>
<glyph name="g" format="2">
  <advance width="1254"/>
  <unicode hex="0067"/>
  <outline>
    <contour>
      <point x="834" y="1000" type="line"/>
      <point x="834" y="912" type="line"/>
      <point x="774" y="980"/>
      <point x="692" y="1026"/>
      <point x="586" y="1026" type="curve" smooth="yes"/>
      <point x="296" y="1026"/>
      <point x="60" y="790"/>
      <point x="60" y="500" type="curve" smooth="yes"/>
      <point x="60" y="210"/>
      <point x="296" y="-26"/>
      <point x="586" y="-26" type="curve" smooth="yes"/>
      <point x="692" y="-26"/>
      <point x="774" y="20"/>
      <point x="834" y="88" type="curve"/>
      <point x="834" y="-10" type="line" smooth="yes"/>
      <point x="834" y="-140"/>
      <point x="704" y="-198"/>
      <point x="566" y="-198" type="curve" smooth="yes"/>
      <point x="472" y="-198"/>
      <point x="386" y="-146"/>
      <point x="344" y="-56" type="curve"/>
      <point x="70" y="-180" type="line"/>
      <point x="158" y="-370"/>
      <point x="354" y="-500"/>
      <point x="566" y="-500" type="curve" smooth="yes"/>
      <point x="870" y="-500"/>
      <point x="1134" y="-314"/>
      <point x="1134" y="-10" type="curve" smooth="yes"/>
      <point x="1134" y="1000" type="line"/>
    </contour>
    <contour>
      <point x="590" y="262" type="curve" smooth="yes"/>
      <point x="468" y="262"/>
      <point x="368" y="368"/>
      <point x="368" y="500" type="curve" smooth="yes"/>
      <point x="368" y="632"/>
      <point x="468" y="738"/>
      <point x="590" y="738" type="curve" smooth="yes"/>
      <point x="714" y="738"/>
      <point x="814" y="632"/>
      <point x="814" y="500" type="curve" smooth="yes"/>
      <point x="814" y="368"/>
      <point x="714" y="262"/>
    </contour>
  </outline>
</glyph>
<glyph name="h" format="2">
  <advance width="1178"/>
  <unicode hex="0068"/>
  <outline>
    <contour>
      <point x="1098" y="504" type="line"/>
      <point x="1094" y="792"/>
      <point x="920" y="1026"/>
      <point x="632" y="1026" type="curve"/>
      <point x="532" y="1026"/>
      <point x="460" y="1020"/>
      <point x="420" y="938" type="curve"/>
      <point x="420" y="1500" type="line"/>
      <point x="120" y="1500" type="line"/>
      <point x="120" y="0" type="line"/>
      <point x="422" y="0" type="line"/>
      <point x="422" y="500" type="line"/>
      <point x="422" y="632"/>
      <point x="468" y="738"/>
      <point x="600" y="738" type="curve"/>
      <point x="710" y="738"/>
      <point x="798" y="632"/>
      <point x="798" y="500" type="curve"/>
      <point x="798" y="0" type="line"/>
      <point x="1098" y="0" type="line"/>
    </contour>
  </outline>
</glyph>
<glyph name="j" format="2">
  <advance width="542"/>
  <unicode hex="006A"/>
  <outline>
    <contour>
      <point x="-80" y="-500" type="curve"/>
      <point x="182" y="-500"/>
      <point x="392" y="-288"/>
      <point x="392" y="-28" type="curve"/>
      <point x="392" y="1000" type="line"/>
      <point x="92" y="1000" type="line"/>
      <point x="92" y="-28" type="line"/>
      <point x="92" y="-124"/>
      <point x="14" y="-200"/>
      <point x="-80" y="-200" type="curve"/>
      <point x="-80" y="-200"/>
      <point x="-80" y="-500"/>
    </contour>
    <contour>
      <point x="242" y="1100" type="curve"/>
      <point x="324" y="1100"/>
      <point x="392" y="1168"/>
      <point x="392" y="1250" type="curve"/>
      <point x="392" y="1334"/>
      <point x="324" y="1400"/>
      <point x="242" y="1400" type="curve"/>
      <point x="158" y="1400"/>
      <point x="92" y="1334"/>
      <point x="92" y="1250" type="curve"/>
      <point x="92" y="1168"/>
      <point x="158" y="1100"/>
    </contour>
  </outline>
</glyph>
<glyph name="bar" format="2">
  <advance width="580"/>
  <unicode hex="007C"/>
  <outline>
    <contour>
      <point x="140" y="1400" type="line"/>
      <point x="140" y="-302" type="line"/>
      <point x="440" y="-302" type="line"/>
      <point x="440" y="1400" type="line"/>
    </contour>
  </outline>
</glyph>
<glyph name="braceright" format="2">
  <advance width="830"/>
  <unicode hex="007D"/>
  <outline>
    <contour>
      <point x="100" y="-112" type="line"/>
      <point x="226" y="-112" type="line" smooth="yes"/>
      <point x="420" y="-112"/>
      <point x="576" y="44"/>
      <point x="576" y="238" type="curve" smooth="yes"/>
      <point x="576" y="482" type="line" smooth="yes"/>
      <point x="576" y="546"/>
      <point x="710" y="560"/>
      <point x="710" y="644" type="curve" smooth="yes"/>
      <point x="710" y="720"/>
      <point x="576" y="750"/>
      <point x="576" y="804" type="curve" smooth="yes"/>
      <point x="576" y="1050" type="line" smooth="yes"/>
      <point x="576" y="1242"/>
      <point x="420" y="1400"/>
      <point x="226" y="1400" type="curve" smooth="yes"/>
      <point x="100" y="1400" type="line"/>
      <point x="100" y="1100" type="line"/>
      <point x="226" y="1100" type="line" smooth="yes"/>
      <point x="254" y="1100"/>
      <point x="276" y="1078"/>
      <point x="276" y="1050" type="curve" smooth="yes"/>
      <point x="276" y="794" type="line"/>
      <point x="280" y="732"/>
      <point x="358" y="698"/>
      <point x="358" y="644" type="curve" smooth="yes"/>
      <point x="358" y="584"/>
      <point x="280" y="558"/>
      <point x="276" y="494" type="curve"/>
      <point x="276" y="238" type="line" smooth="yes"/>
      <point x="276" y="210"/>
      <point x="254" y="188"/>
      <point x="226" y="188" type="curve" smooth="yes"/>
      <point x="100" y="188" type="line"/>
    </contour>
  </outline>
</glyph>
<glyph name="exclamdown" format="2">
  <advance width="498"/>
  <unicode hex="00A1"/>
  <outline>
    <contour>
      <point x="228" y="1026" type="curve"/>
      <point x="146" y="1026"/>
      <point x="80" y="960"/>
      <point x="80" y="874" type="curve"/>
      <point x="80" y="792"/>
      <point x="146" y="726"/>
      <point x="228" y="726" type="curve"/>
      <point x="312" y="726"/>
      <point x="378" y="792"/>
      <point x="378" y="874" type="curve"/>
      <point x="378" y="960"/>
      <point x="312" y="1026"/>
    </contour>
    <contour>
      <point x="354" y="580" type="line"/>
      <point x="104" y="580" type="line"/>
      <point x="104" y="-400" type="line"/>
      <point x="354" y="-400" type="line"/>
    </contour>
  </outline>
</glyph>
<glyph name="twosuperior" format="2">
  <advance width="727"/>
  <unicode hex="00B2"/>
  <outline>
    <contour>
      <point x="96" y="818" type="line"/>
      <point x="571" y="818" type="line"/>
      <point x="571" y="986" type="line"/>
      <point x="403" y="986" type="line"/>
      <point x="490" y="1062"/>
      <point x="583" y="1132"/>
      <point x="583" y="1235" type="curve"/>
      <point x="583" y="1370"/>
      <point x="475" y="1468"/>
      <point x="341" y="1468" type="curve"/>
      <point x="206" y="1468"/>
      <point x="96" y="1370"/>
      <point x="96" y="1235" type="curve"/>
      <point x="264" y="1235" type="line"/>
      <point x="264" y="1278"/>
      <point x="298" y="1312"/>
      <point x="341" y="1312" type="curve"/>
      <point x="382" y="1312"/>
      <point x="415" y="1278"/>
      <point x="415" y="1235" type="curve"/>
      <point x="343" y="1098"/>
      <point x="211" y="1043"/>
      <point x="96" y="964" type="curve"/>
    </contour>
  </outline>
</glyph>
<glyph name="periodcentered" format="2">
  <advance width="460"/>
  <unicode hex="00B7"/>
  <outline>
    <contour>
      <point x="230" y="450" type="curve" smooth="yes"/>
      <point x="312" y="450"/>
      <point x="380" y="516"/>
      <point x="380" y="600" type="curve" smooth="yes"/>
      <point x="380" y="682"/>
      <point x="312" y="750"/>
      <point x="230" y="750" type="curve" smooth="yes"/>
      <point x="146" y="750"/>
      <point x="80" y="682"/>
      <point x="80" y="600" type="curve" smooth="yes"/>
      <point x="80" y="516"/>
      <point x="146" y="450"/>
    </contour>
  </outline>
</glyph>
<glyph name="AE" format="2">
  <advance width="1710"/>
  <unicode hex="00C6"/>
  <outline>
    <contour>
      <point x="80" y="0" type="line"/>
      <point x="398" y="0" type="line"/>
      <point x="478" y="220" type="line"/>
      <point x="858" y="220" type="line"/>
      <point x="858" y="0" type="line"/>
      <point x="1610" y="0" type="line"/>
      <point x="1610" y="300" type="line"/>
      <point x="1158" y="300" type="line"/>
      <point x="1158" y="550" type="line"/>
      <point x="1514" y="550" type="line"/>
      <point x="1514" y="850" type="line"/>
      <point x="1158" y="850" type="line"/>
      <point x="1158" y="1100" type="line"/>
      <point x="1610" y="1100" type="line"/>
      <point x="1610" y="1400" type="line"/>
      <point x="588" y="1400" type="line"/>
    </contour>
    <contour>
      <point x="588" y="520" type="line"/>
      <point x="798" y="1100" type="line"/>
      <point x="858" y="1100" type="line"/>
      <point x="858" y="520" type="line"/>
    </contour>
  </outline>
</glyph>
<glyph name="Eth" format="2">
  <advance width="1462"/>
  <unicode hex="00D0"/>
  <outline>
    <contour>
      <point x="240" y="0" type="line"/>
      <point x="702" y="0" type="line" smooth="yes"/>
      <point x="1088" y="0"/>
      <point x="1402" y="314"/>
      <point x="1402" y="700" type="curve" smooth="yes"/>
      <point x="1402" y="1086"/>
      <point x="1088" y="1400"/>
      <point x="702" y="1400" type="curve" smooth="yes"/>
      <point x="240" y="1400" type="line"/>
      <point x="240" y="900" type="line"/>
      <point x="100" y="900" type="line"/>
      <point x="100" y="600" type="line"/>
      <point x="240" y="600" type="line"/>
    </contour>
    <contour>
      <point x="540" y="300" type="line"/>
      <point x="540" y="600" type="line"/>
      <point x="778" y="600" type="line"/>
      <point x="778" y="900" type="line"/>
      <point x="540" y="900" type="line"/>
      <point x="540" y="1100" type="line"/>
      <point x="702" y="1100" type="line" smooth="yes"/>
      <point x="922" y="1100"/>
      <point x="1102" y="920"/>
      <point x="1102" y="700" type="curve" smooth="yes"/>
      <point x="1102" y="480"/>
      <point x="922" y="300"/>
      <point x="702" y="300" type="curve" smooth="yes"/>
    </contour>
  </outline>
</glyph>
<glyph name="germandbls" format="2">
  <advance width="1186"/>
  <unicode hex="00DF"/>
  <outline>
    <contour>
      <point x="120" y="0" type="line"/>
      <point x="420" y="0" type="line"/>
      <point x="420" y="950" type="line" smooth="yes"/>
      <point x="420" y="1058"/>
      <point x="506" y="1144"/>
      <point x="614" y="1144" type="curve" smooth="yes"/>
      <point x="694" y="1144"/>
      <point x="760" y="1076"/>
      <point x="760" y="994" type="curve" smooth="yes"/>
      <point x="760" y="912"/>
      <point x="694" y="858"/>
      <point x="614" y="844" type="curve" smooth="yes"/>
      <point x="590" y="840" type="line"/>
      <point x="590" y="598" type="line"/>
      <point x="672" y="594" type="line" smooth="yes"/>
      <point x="776" y="588"/>
      <point x="860" y="516"/>
      <point x="860" y="424" type="curve" smooth="yes"/>
      <point x="860" y="332"/>
      <point x="776" y="254"/>
      <point x="672" y="254" type="curve" smooth="yes"/>
      <point x="590" y="254" type="line"/>
      <point x="630" y="0" type="line"/>
      <point x="704" y="0" type="line" smooth="yes"/>
      <point x="936" y="0"/>
      <point x="1126" y="170"/>
      <point x="1126" y="402" type="curve" smooth="yes"/>
      <point x="1126" y="526"/>
      <point x="1108" y="710"/>
      <point x="930" y="734" type="curve"/>
      <point x="1034" y="782"/>
      <point x="1060" y="906"/>
      <point x="1060" y="994" type="curve" smooth="yes"/>
      <point x="1060" y="1228"/>
      <point x="880" y="1400"/>
      <point x="650" y="1400" type="curve" smooth="yes"/>
      <point x="356" y="1400"/>
      <point x="120" y="1162"/>
      <point x="120" y="870" type="curve" smooth="yes"/>
    </contour>
  </outline>
</glyph>
<glyph name="idieresis" format="2">
  <advance width="862"/>
  <unicode hex="00EF"/>
  <outline>
    <contour>
      <point x="280" y="1000" type="line"/>
      <point x="280" y="0" type="line"/>
      <point x="580" y="0" type="line"/>
      <point x="580" y="1000" type="line"/>
    </contour>
    <component base="dieresiscomb" xOffset="-340"/>
  </outline>
</glyph>
<glyph name="divide" format="2">
  <advance width="1160"/>
  <unicode hex="00F7"/>
  <outline>
    <contour>
      <point x="80" y="450" type="line"/>
      <point x="1080" y="450" type="line"/>
      <point x="1080" y="750" type="line"/>
      <point x="80" y="750" type="line"/>
    </contour>
    <contour>
      <point x="580" y="1110" type="curve"/>
      <point x="496" y="1110"/>
      <point x="430" y="1042"/>
      <point x="430" y="960" type="curve"/>
      <point x="430" y="878"/>
      <point x="496" y="810"/>
      <point x="580" y="810" type="curve"/>
      <point x="662" y="810"/>
      <point x="730" y="878"/>
      <point x="730" y="960" type="curve"/>
      <point x="730" y="1042"/>
      <point x="662" y="1110"/>
    </contour>
    <contour>
      <point x="580" y="390" type="curve"/>
      <point x="496" y="390"/>
      <point x="430" y="322"/>
      <point x="430" y="240" type="curve"/>
      <point x="430" y="158"/>
      <point x="496" y="90"/>
      <point x="580" y="90" type="curve"/>
      <point x="662" y="90"/>
      <point x="730" y="158"/>
      <point x="730" y="240" type="curve"/>
      <point x="730" y="322"/>
      <point x="662" y="390"/>
    </contour>
  </outline>
</glyph>
<glyph name="idotless" format="2">
  <advance width="540"/>
  <unicode hex="0131"/>
  <outline>
    <contour>
      <point x="120" y="1000" type="line"/>
      <point x="120" y="0" type="line"/>
      <point x="420" y="0" type="line"/>
      <point x="420" y="1000" type="line"/>
    </contour>
  </outline>
</glyph>
<glyph name="gravecomb" format="2">
  <unicode hex="0300"/>
  <outline>
    <contour>
      <point x="320" y="1426" type="line"/>
      <point x="540" y="1138" type="line"/>
      <point x="700" y="1138" type="line"/>
      <point x="620" y="1426" type="line"/>
    </contour>
  </outline>
</glyph>
<glyph name="tildecomb" format="2">
  <unicode hex="0303"/>
  <outline>
    <contour>
      <point x="810" y="1194" type="curve" smooth="yes"/>
      <point x="964" y="1194"/>
      <point x="1050" y="1326"/>
      <point x="988" y="1514" type="curve"/>
      <point x="816" y="1458" type="line"/>
      <point x="830" y="1420"/>
      <point x="850" y="1378"/>
      <point x="812" y="1378" type="curve" smooth="yes"/>
      <point x="784" y="1378"/>
      <point x="594" y="1520"/>
      <point x="498" y="1520" type="curve" smooth="yes"/>
      <point x="334" y="1520"/>
      <point x="260" y="1384"/>
      <point x="322" y="1206" type="curve"/>
      <point x="490" y="1252" type="line"/>
      <point x="478" y="1292"/>
      <point x="472" y="1310"/>
      <point x="480" y="1334" type="curve" smooth="yes"/>
      <point x="496" y="1380"/>
      <point x="708" y="1194"/>
    </contour>
  </outline>
</glyph>
<glyph name="dotaccentcomb" format="2">
  <unicode hex="0307"/>
  <outline>
    <contour>
      <point x="552" y="1124" type="curve" smooth="yes"/>
      <point x="636" y="1124"/>
      <point x="702" y="1188"/>
      <point x="702" y="1274" type="curve" smooth="yes"/>
      <point x="702" y="1358"/>
      <point x="636" y="1424"/>
      <point x="552" y="1424" type="curve" smooth="yes"/>
      <point x="466" y="1424"/>
      <point x="400" y="1358"/>
      <point x="400" y="1274" type="curve" smooth="yes"/>
      <point x="400" y="1188"/>
      <point x="466" y="1124"/>
    </contour>
  </outline>
</glyph>
<glyph name="Germandbls" format="2">
  <advance width="1246"/>
  <unicode hex="1E9E"/>
  <outline>
    <contour>
      <point x="120" y="0" type="line"/>
      <point x="420" y="0" type="line"/>
      <point x="420" y="950" type="line" smooth="yes"/>
      <point x="420" y="1058"/>
      <point x="508" y="1144"/>
      <point x="594" y="1144" type="curve" smooth="yes"/>
      <point x="680" y="1144"/>
      <point x="758" y="1148"/>
      <point x="758" y="1074" type="curve" smooth="yes"/>
      <point x="758" y="1040"/>
      <point x="590" y="858"/>
      <point x="590" y="704" type="curve" smooth="yes"/>
      <point x="590" y="594" type="line"/>
      <point x="672" y="594" type="line" smooth="yes"/>
      <point x="776" y="594"/>
      <point x="920" y="556"/>
      <point x="920" y="424" type="curve" smooth="yes"/>
      <point x="920" y="292"/>
      <point x="776" y="254"/>
      <point x="672" y="254" type="curve" smooth="yes"/>
      <point x="590" y="254" type="line"/>
      <point x="650" y="0" type="line"/>
      <point x="704" y="0" type="line" smooth="yes"/>
      <point x="936" y="0"/>
      <point x="1186" y="150"/>
      <point x="1186" y="422" type="curve" smooth="yes"/>
      <point x="1186" y="586"/>
      <point x="1010" y="770"/>
      <point x="832" y="734" type="curve"/>
      <point x="974" y="906"/>
      <point x="1058" y="972"/>
      <point x="1058" y="1068" type="curve" smooth="yes"/>
      <point x="1058" y="1248"/>
      <point x="858" y="1400"/>
      <point x="650" y="1400" type="curve" smooth="yes"/>
      <point x="358" y="1400"/>
      <point x="120" y="1162"/>
      <point x="120" y="870" type="curve" smooth="yes"/>
    </contour>
  </outline>
</glyph>
<glyph name="quoteleft" format="2">
  <advance width="462"/>
  <unicode hex="2018"/>
  <unicode hex="02BB"/>
  <outline>
    <contour>
      <point x="60" y="878" type="line"/>
      <point x="360" y="878" type="line"/>
      <point x="422" y="1400" type="line"/>
      <point x="222" y="1400" type="line"/>
    </contour>
  </outline>
</glyph>
<glyph name="dagger" format="2">
  <advance width="896"/>
  <unicode hex="2020"/>
  <outline>
    <contour>
      <point x="80" y="1000" type="line"/>
      <point x="298" y="1000" type="line"/>
      <point x="298" y="560" type="line"/>
      <point x="598" y="560" type="line"/>
      <point x="598" y="1000" type="line"/>
      <point x="816" y="1000" type="line"/>
      <point x="816" y="1300" type="line"/>
      <point x="598" y="1300" type="line"/>
      <point x="598" y="1500" type="line"/>
      <point x="298" y="1500" type="line"/>
      <point x="298" y="1300" type="line"/>
      <point x="80" y="1300" type="line"/>
    </contour>
  </outline>
</glyph>
<glyph name="fraction" format="2">
  <advance width="1050"/>
  <unicode hex="2044"/>
  <unicode hex="2215"/>
  <outline>
    <contour>
      <point x="0" y="0" type="line"/>
      <point x="242" y="0" type="line"/>
      <point x="1050" y="1400" type="line"/>
      <point x="808" y="1400" type="line"/>
    </contour>
  </outline>
</glyph>
<glyph name="sevensuperior" format="2">
  <advance width="686"/>
  <unicode hex="2077"/>
  <outline>
    <contour>
      <point x="156" y="818" type="line"/>
      <point x="348" y="818" type="line"/>
      <point x="614" y="1283" type="line"/>
      <point x="614" y="1446" type="line"/>
      <point x="120" y="1446" type="line"/>
      <point x="120" y="1278" type="line"/>
      <point x="420" y="1278" type="line"/>
    </contour>
  </outline>
</glyph>
<glyph name="eightinferior" format="2">
  <advance width="636"/>
  <unicode hex="2088"/>
  <outline>
    <contour>
      <point x="317" y="-31" type="curve" smooth="yes"/>
      <point x="442" y="-31"/>
      <point x="540" y="65"/>
      <point x="540" y="187" type="curve" smooth="yes"/>
      <point x="540" y="242"/>
      <point x="521" y="293"/>
      <point x="490" y="331" type="curve"/>
      <point x="514" y="365"/>
      <point x="528" y="408"/>
      <point x="528" y="451" type="curve" smooth="yes"/>
      <point x="528" y="569"/>
      <point x="432" y="662"/>
      <point x="317" y="662" type="curve" smooth="yes"/>
      <point x="202" y="662"/>
      <point x="108" y="569"/>
      <point x="108" y="451" type="curve" smooth="yes"/>
      <point x="108" y="408"/>
      <point x="122" y="365"/>
      <point x="146" y="331" type="curve"/>
      <point x="115" y="293"/>
      <point x="96" y="242"/>
      <point x="96" y="187" type="curve" smooth="yes"/>
      <point x="96" y="65"/>
      <point x="194" y="-31"/>
    </contour>
    <contour>
      <point x="317" y="134" type="curve" smooth="yes"/>
      <point x="288" y="134"/>
      <point x="264" y="158"/>
      <point x="264" y="187" type="curve" smooth="yes"/>
      <point x="264" y="218"/>
      <point x="288" y="242"/>
      <point x="317" y="242" type="curve" smooth="yes"/>
      <point x="348" y="242"/>
      <point x="372" y="218"/>
      <point x="372" y="187" type="curve" smooth="yes"/>
      <point x="372" y="158"/>
      <point x="348" y="134"/>
    </contour>
    <contour>
      <point x="317" y="410" type="curve" smooth="yes"/>
      <point x="295" y="410"/>
      <point x="276" y="430"/>
      <point x="276" y="451" type="curve" smooth="yes"/>
      <point x="276" y="475"/>
      <point x="295" y="494"/>
      <point x="317" y="494" type="curve" smooth="yes"/>
      <point x="341" y="494"/>
      <point x="360" y="475"/>
      <point x="360" y="451" type="curve" smooth="yes"/>
      <point x="360" y="430"/>
      <point x="341" y="410"/>
    </contour>
  </outline>
</glyph>
<glyph name="northEastArrow" format="2">
  <advance width="1162"/>
  <unicode hex="2197"/>
  <outline>
    <contour>
      <point x="292" y="250" type="line"/>
      <point x="782" y="738" type="line"/>
      <point x="782" y="470" type="line"/>
      <point x="1082" y="470" type="line"/>
      <point x="1082" y="1250" type="line"/>
      <point x="300" y="1250" type="line"/>
      <point x="300" y="950" type="line"/>
      <point x="570" y="950" type="line"/>
      <point x="80" y="462" type="line"/>
    </contour>
  </outline>
</glyph>
<glyph name="southWestArrow" format="2">
  <advance width="1162"/>
  <unicode hex="2199"/>
  <outline>
    <contour>
      <point x="80" y="250" type="line"/>
      <point x="860" y="250" type="line"/>
      <point x="860" y="550" type="line"/>
      <point x="592" y="550" type="line"/>
      <point x="1082" y="1038" type="line"/>
      <point x="870" y="1250" type="line"/>
      <point x="380" y="762" type="line"/>
      <point x="380" y="1030" type="line"/>
      <point x="80" y="1030" type="line"/>
    </contour>
  </outline>
</glyph>
<glyph name="partialdiff" format="2">
  <advance width="1166"/>
  <unicode hex="2202"/>
  <outline>
    <contour>
      <point x="584" y="-26" type="curve"/>
      <point x="874" y="-26"/>
      <point x="1086" y="198"/>
      <point x="1086" y="512" type="curve"/>
      <point x="1086" y="1046"/>
      <point x="800" y="1540"/>
      <point x="338" y="1540" type="curve"/>
      <point x="340" y="1240" type="line"/>
      <point x="558" y="1240"/>
      <point x="610" y="1080"/>
      <point x="664" y="972" type="curve"/>
      <point x="638" y="978"/>
      <point x="610" y="980"/>
      <point x="584" y="980" type="curve"/>
      <point x="306" y="980"/>
      <point x="80" y="754"/>
      <point x="80" y="476" type="curve"/>
      <point x="80" y="200"/>
      <point x="306" y="-26"/>
    </contour>
    <contour>
      <point x="584" y="274" type="curve"/>
      <point x="472" y="274"/>
      <point x="380" y="366"/>
      <point x="380" y="476" type="curve"/>
      <point x="380" y="588"/>
      <point x="472" y="680"/>
      <point x="584" y="680" type="curve"/>
      <point x="694" y="680"/>
      <point x="786" y="588"/>
      <point x="786" y="476" type="curve"/>
      <point x="786" y="366"/>
      <point x="694" y="274"/>
    </contour>
  </outline>
</glyph>
<glyph name="infinity" format="2">
  <advance width="1548"/>
  <unicode hex="221E"/>
  <outline>
    <contour>
      <point x="466" y="228" type="curve" smooth="yes"/>
      <point x="586" y="218"/>
      <point x="686" y="278"/>
      <point x="774" y="382" type="curve"/>
      <point x="860" y="284"/>
      <point x="958" y="228"/>
      <point x="1084" y="228" type="curve" smooth="yes"/>
      <point x="1314" y="228"/>
      <point x="1468" y="394"/>
      <point x="1468" y="614" type="curve" smooth="yes"/>
      <point x="1468" y="820"/>
      <point x="1328" y="1000"/>
      <point x="1084" y="1000" type="curve" smooth="yes"/>
      <point x="964" y="1000"/>
      <point x="864" y="948"/>
      <point x="774" y="844" type="curve"/>
      <point x="690" y="944"/>
      <point x="590" y="1000"/>
      <point x="466" y="1000" type="curve" smooth="yes"/>
      <point x="236" y="1000"/>
      <point x="80" y="832"/>
      <point x="80" y="614" type="curve" smooth="yes"/>
      <point x="80" y="408"/>
      <point x="224" y="248"/>
    </contour>
    <contour>
      <point x="462" y="500" type="curve" smooth="yes"/>
      <point x="394" y="500"/>
      <point x="350" y="550"/>
      <point x="350" y="614" type="curve" smooth="yes"/>
      <point x="350" y="666"/>
      <point x="388" y="724"/>
      <point x="462" y="726" type="curve" smooth="yes"/>
      <point x="518" y="730"/>
      <point x="586" y="650"/>
      <point x="610" y="614" type="curve"/>
      <point x="590" y="582"/>
      <point x="520" y="500"/>
    </contour>
    <contour>
      <point x="1088" y="500" type="curve" smooth="yes"/>
      <point x="1032" y="498"/>
      <point x="964" y="578"/>
      <point x="940" y="614" type="curve"/>
      <point x="974" y="662"/>
      <point x="1032" y="728"/>
      <point x="1100" y="728" type="curve" smooth="yes"/>
      <point x="1158" y="728"/>
      <point x="1200" y="672"/>
      <point x="1200" y="614" type="curve" smooth="yes"/>
      <point x="1200" y="558"/>
      <point x="1162" y="502"/>
    </contour>
  </outline>
</glyph>
<glyph name="lessequal" format="2">
  <advance width="1160"/>
  <unicode hex="2264"/>
  <outline>
    <contour>
      <point x="1080" y="328" type="line"/>
      <point x="1080" y="640" type="line"/>
      <point x="294" y="864" type="line"/>
      <point x="1080" y="1088" type="line"/>
      <point x="1080" y="1400" type="line"/>
      <point x="80" y="1114" type="line"/>
      <point x="80" y="612" type="line"/>
    </contour>
    <contour>
      <point x="80" y="0" type="line"/>
      <point x="1080" y="0" type="line"/>
      <point x="1080" y="300" type="line"/>
      <point x="80" y="300" type="line"/>
    </contour>
  </outline>
</glyph>
<glyph name="greaterequal" format="2">
  <advance width="1160"/>
  <unicode hex="2265"/>
  <outline>
    <contour>
      <point x="80" y="352" type="line"/>
      <point x="1080" y="624" type="line"/>
      <point x="1080" y="1126" type="line"/>
      <point x="80" y="1400" type="line"/>
      <point x="80" y="1088" type="line"/>
      <point x="866" y="876" type="line"/>
      <point x="80" y="664" type="line"/>
    </contour>
    <contour>
      <point x="80" y="0" type="line"/>
      <point x="1080" y="0" type="line"/>
      <point x="1080" y="300" type="line"/>
      <point x="80" y="300" type="line"/>
    </contour>
  </outline>
</glyph>
<glyph name="replacementCharacter" format="2">
  <advance width="1630"/>
  <unicode hex="FFFD"/>
  <outline>
    <contour>
      <point x="816" y="-26" type="curve" smooth="yes"/>
      <point x="888" y="-26"/>
      <point x="960" y="2"/>
      <point x="1014" y="56" type="curve" smooth="yes"/>
      <point x="1428" y="470" type="line" smooth="yes"/>
      <point x="1484" y="526"/>
      <point x="1510" y="598"/>
      <point x="1510" y="670" type="curve" smooth="yes"/>
      <point x="1510" y="742"/>
      <point x="1484" y="812"/>
      <point x="1428" y="868" type="curve" smooth="yes"/>
      <point x="1014" y="1282" type="line" smooth="yes"/>
      <point x="958" y="1338"/>
      <point x="888" y="1364"/>
      <point x="816" y="1364" type="curve" smooth="yes"/>
      <point x="744" y="1364"/>
      <point x="672" y="1338"/>
      <point x="616" y="1282" type="curve" smooth="yes"/>
      <point x="202" y="868" type="line" smooth="yes"/>
      <point x="148" y="814"/>
      <point x="120" y="742"/>
      <point x="120" y="670" type="curve" smooth="yes"/>
      <point x="120" y="598"/>
      <point x="146" y="526"/>
      <point x="202" y="470" type="curve" smooth="yes"/>
      <point x="616" y="56" type="line" smooth="yes"/>
      <point x="672" y="0"/>
      <point x="744" y="-26"/>
    </contour>
    <contour>
      <point x="820" y="230" type="curve" smooth="yes"/>
      <point x="764" y="230"/>
      <point x="720" y="274"/>
      <point x="720" y="332" type="curve" smooth="yes"/>
      <point x="720" y="386"/>
      <point x="764" y="430"/>
      <point x="820" y="430" type="curve" smooth="yes"/>
      <point x="876" y="430"/>
      <point x="920" y="386"/>
      <point x="920" y="332" type="curve" smooth="yes"/>
      <point x="920" y="274"/>
      <point x="876" y="230"/>
    </contour>
    <contour>
      <point x="714" y="512" type="line"/>
      <point x="714" y="514" type="line" smooth="yes"/>
      <point x="714" y="604"/>
      <point x="760" y="688"/>
      <point x="842" y="728" type="curve" smooth="yes"/>
      <point x="862" y="738"/>
      <point x="874" y="762"/>
      <point x="874" y="788" type="curve" smooth="yes"/>
      <point x="874" y="826"/>
      <point x="844" y="856"/>
      <point x="806" y="856" type="curve" smooth="yes"/>
      <point x="768" y="856"/>
      <point x="738" y="826"/>
      <point x="738" y="788" type="curve"/>
      <point x="538" y="788" type="line"/>
      <point x="538" y="936"/>
      <point x="658" y="1056"/>
      <point x="806" y="1056" type="curve" smooth="yes"/>
      <point x="954" y="1056"/>
      <point x="1074" y="936"/>
      <point x="1074" y="788" type="curve" smooth="yes"/>
      <point x="1074" y="688"/>
      <point x="1020" y="600"/>
      <point x="936" y="552" type="curve" smooth="yes"/>
      <point x="922" y="544"/>
      <point x="914" y="530"/>
      <point x="914" y="514" type="curve" smooth="yes"/>
      <point x="914" y="512" type="line"/>
    </contour>
  </outline>
</glyph>
